                       Slip 2006 DVDRip Xvid LKRG


RIPPER                           : fasamoo
Format                           : AVI
Format/Info                      : Audio Video Interleave
File size                        : 700 MiB
Duration                         : 1h 36mn
Overall bit rate                 : 1 011 Kbps
Writing application              : VirtualDubMod 1.5.4.1 (build 2178/release)
Writing library                  : VirtualDubMod build 2178/release
Language                         : English
Subtitles                        : None
Genre                            : Thriller

Video
ID                               : 0
Format                           : MPEG-4 Visual
Format profile                   : Advanced Simple@L5
Format settings, BVOP            : Yes
Format settings, QPel            : No
Format settings, GMC             : No warppoints
Format settings, Matrix          : Custom
Codec ID                         : XVID
Codec ID/Hint                    : XviD
Duration                         : 1h 36mn
Bit rate                         : 882 Kbps
Width                            : 560 pixels
Height                           : 336 pixels
Display aspect ratio             : 1.667
Frame rate                       : 23.976 fps
Color space                      : YUV
Chroma subsampling               : 4:2:0
Bit depth                        : 8 bits
Scan type                        : Progressive
Bits/(Pixel*Frame)               : 0.196
Stream size                      : 611 MiB (87%)
Writing library                  : XviD 1.2.1 (UTC 2008-12-04)

Audio
ID                               : 1
Format                           : MPEG Audio
Format version                   : Version 1
Format profile                   : Layer 3
Mode                             : Joint stereo
Codec ID                         : 55
Codec ID/Hint                    : MP3
Duration                         : 1h 36mn
Bit rate mode                    : Variable
Bit rate                         : 116 Kbps
Nominal bit rate                 : 128 Kbps
Channel(s)                       : 2 channels
Sampling rate                    : 48.0 KHz
Stream size                      : 80.1 MiB (11%)
Alignment                        : Aligned on interleaves
Interleave, duration             : 24 ms (0.58 video frame)
Interleave, preload duration     : 544 ms
Writing library                  : LAME3.98r
Encoding settings                : -m j -V 4 -q 2 -lowpass 17 --abr 128

                                 PLOT

"Slip" is the story of Sarah, a young woman who witnessed her mother's murder as a child. Now grown, Sarah is haunted by her mother's memory, her restless soul, opening a gateway for the spirits of the recently departed. Sarah is compelled to do their bidding so their souls may rest in peace. One of these souls leads her to Cal, a young car thief who is one car away from going legit. Unfortunately, Cal is wrongfully accused of stealing from his partners and now they want him dead.Sarah, drawn by the spirit of Cal's murdered nephew, becomes an avenging angel, awakening a dark spirit of her past while risking all to save a total stranger. Now in a race for their lives as well as their souls, Cal and Sarah soon discover that there are far more fearsome things than men with guns.


  







                                 IMBD
                     
                    http://www.imdb.com/title/tt0827786/
 
http://leetleech.org/images/80656920292165552303.png 
http://leetleech.org/images/98831712683937945649.png 
http://leetleech.org/images/86309787035871366655.png 
http://leetleech.org/images/31593299358056568848.png 
http://leetleech.org/images/96554201140661077882.png 
http://leetleech.org/images/50477573363366248962.png 
http://leetleech.org/images/06785686917348298794.png